<svg id="Layer_1" data-name="Layer 1" xmlns="http://www.w3.org/2000/svg" xmlns:xlink="http://www.w3.org/1999/xlink" viewBox="0 0 206.25 247.18"><defs><style>.cls-1{fill:url(#linear-gradient);}.cls-2{fill:url(#linear-gradient-2);}.cls-3{fill:url(#linear-gradient-3);}.cls-4{fill:url(#linear-gradient-4);}.cls-5{fill:url(#linear-gradient-5);}.cls-6{fill:url(#linear-gradient-6);}.cls-7{fill:url(#linear-gradient-7);}</style><linearGradient id="linear-gradient" x1="492.37" y1="354.87" x2="688.93" y2="568.08" gradientTransform="matrix(1, 0, 0, -1, 0, 1026)" gradientUnits="userSpaceOnUse"><stop offset="0" stop-color="#4bff00"/><stop offset="1" stop-color="#fffa2a"/></linearGradient><linearGradient id="linear-gradient-2" x1="534.9" y1="315.66" x2="731.46" y2="528.87" xlink:href="#linear-gradient"/><linearGradient id="linear-gradient-3" x1="473.11" y1="372.63" x2="669.66" y2="585.84" xlink:href="#linear-gradient"/><linearGradient id="linear-gradient-4" x1="456.35" y1="388.08" x2="652.9" y2="601.29" xlink:href="#linear-gradient"/><linearGradient id="linear-gradient-5" x1="578.5" y1="275.47" x2="775.05" y2="488.68" xlink:href="#linear-gradient"/><linearGradient id="linear-gradient-6" x1="533.64" y1="316.83" x2="730.19" y2="530.04" xlink:href="#linear-gradient"/><linearGradient id="linear-gradient-7" x1="546.33" y1="305.13" x2="742.88" y2="518.34" gradientTransform="matrix(1, 0, 0, -1, 0, 1026)" gradientUnits="userSpaceOnUse"><stop offset="0" stop-color="#4bff00"/><stop offset="1" stop-color="#aaff2a"/></linearGradient></defs><path class="cls-1" d="M638.6,495.63a8.27,8.27,0,0,0,8.24,8.24h14.65a8.24,8.24,0,0,0,0-16.48H646.84A8.27,8.27,0,0,0,638.6,495.63Z" transform="translate(-626.13 -388.52)"/><path class="cls-2" d="M649,586.26H634.37a8.24,8.24,0,1,0,0,16.48H649a8.24,8.24,0,0,0,0-16.48Z" transform="translate(-626.13 -388.52)"/><path class="cls-3" d="M702.35,405H717a8.24,8.24,0,0,0,0-16.48H702.35a8.24,8.24,0,0,0,0,16.48Z" transform="translate(-626.13 -388.52)"/><path class="cls-4" d="M646.66,438h3.26a8.24,8.24,0,1,0,0-16.48h-3.26a8.24,8.24,0,0,0,0,16.48Z" transform="translate(-626.13 -388.52)"/><path class="cls-5" d="M693.6,619.21h-3.26a8.24,8.24,0,1,0,0,16.48h3.26a8.24,8.24,0,1,0,0-16.48Z" transform="translate(-626.13 -388.52)"/><path class="cls-6" d="M701.75,536.82a8.24,8.24,0,0,0,0-16.48H698.5a8.24,8.24,0,0,0,0,16.48Z" transform="translate(-626.13 -388.52)"/><path class="cls-7" d="M747.1,569.78h.19a8.24,8.24,0,0,1,0,16.48H682.12a8.24,8.24,0,1,0,0,16.48h56.09a8.24,8.24,0,0,1,0,16.48H723.43a8.24,8.24,0,1,0,0,16.48H756.3a9.07,9.07,0,0,0,7.07-2.87,11,11,0,0,0,3.31-6.67l1.59-16.6A81.5,81.5,0,0,0,795.56,603a64.53,64.53,0,0,0,20.13-13.86,57.47,57.47,0,0,0,12.45-19.56,65.75,65.75,0,0,0,4.24-23.67A48.6,48.6,0,0,0,830.26,531a39.37,39.37,0,0,0-5.87-11.61,41.35,41.35,0,0,0-8.88-8.74,72,72,0,0,0-11-6.58,111.21,111.21,0,0,0-12.28-5c-4.24-1.46-8.48-2.78-12.72-4l4.64-47.11a63.34,63.34,0,0,1,7.77,2.78c2.43,1.06,4.68,2.07,6.8,3s4.07,1.68,5.83,2.3a14.61,14.61,0,0,0,4.77.93,9.88,9.88,0,0,0,5.52-1.5,17.4,17.4,0,0,0,4.55-4.86l10.07-14.7A91.51,91.51,0,0,0,812,423.2a78.28,78.28,0,0,0-24.64-8.57L788.54,403c.4-3.88.52-6.51-2.07-9.89-3-3.89-6.27-4.45-10.5-4.52-1.08,0-2.16,0-3.24,0H748A8.24,8.24,0,0,0,748,405H760a8.24,8.24,0,0,1,0,16.48H678A8.24,8.24,0,0,0,678,438h39.61a8.24,8.24,0,1,1,0,16.48H655.84a8.24,8.24,0,0,0,0,16.48H712a8.24,8.24,0,0,1,0,16.48H691.37a8.24,8.24,0,0,0,0,16.48H737a8.24,8.24,0,0,1,0,16.48h-8.07a8.24,8.24,0,0,0,0,16.48h19.57a8.24,8.24,0,0,1,0,16.48H712.72a8.24,8.24,0,0,0,0,16.48m42.57-82.73a41.08,41.08,0,0,1-13-8.17,16.92,16.92,0,0,1-5-12.67,18.4,18.4,0,0,1,1.19-6.58,15.84,15.84,0,0,1,3.8-5.65,21.8,21.8,0,0,1,6.75-4.28A42.37,42.37,0,0,1,759.27,447Zm20.53,45.33,0,0A39.9,39.9,0,0,1,788.63,540c3.22,3,4.81,7,4.81,12,0,13.51-7.28,21.59-21.86,24.15Z" transform="translate(-626.13 -388.52)"/></svg>